<svg xmlns="http://www.w3.org/2000/svg" viewBox="0 0 36 36" role="img" aria-hidden="true">
  <defs>
    <linearGradient id="luminoMarkGrad" x1="0%" y1="100%" x2="100%" y2="0%">
      <stop offset="0%" stop-color="#ff6f00"/>
      <stop offset="100%" stop-color="#2d9b84"/>
    </linearGradient>
  </defs>
  <rect width="36" height="36" rx="10" fill="url(#luminoMarkGrad)"/>
  <path fill="#ffffff" fill-opacity="0.96" d="M18 6.8c-.3 3.4-3.6 6-3.6 11 0 3.4 1.7 6.5 3.6 8.3 1.9-1.8 3.6-4.9 3.6-8.3 0-5-3.3-7.6-3.6-11zm-4.9 17.4c-1.3 1.5-2 3.4-2 5.5 0 4.7 3.8 8.5 8.5 8.5s8.5-3.8 8.5-8.5c0-2.1-.7-4-2-5.5-.9 2.4-3.2 4.1-6 4.1s-5.1-1.7-6-4.1z"/>
</svg>
